<svg xmlns="http://www.w3.org/2000/svg" viewBox="0 0 1440 650" preserveAspectRatio="xMidYMid slice">
  <defs>
    <radialGradient id="tableGlow" cx="16%" cy="62%" r="70%">
      <stop offset="0%" stop-color="#64ff3c" stop-opacity="0.78"/>
      <stop offset="38%" stop-color="#148b27" stop-opacity="0.4"/>
      <stop offset="100%" stop-color="#020704" stop-opacity="0"/>
    </radialGradient>
    <linearGradient id="backdrop" x1="0" x2="1" y1="0" y2="0">
      <stop offset="0%" stop-color="#126d1b"/>
      <stop offset="22%" stop-color="#0b4e15"/>
      <stop offset="52%" stop-color="#06200c"/>
      <stop offset="78%" stop-color="#020904"/>
      <stop offset="100%" stop-color="#000201"/>
    </linearGradient>
    <linearGradient id="leftWash" x1="0" x2="1" y1="0" y2="0">
      <stop offset="0%" stop-color="#9eff36" stop-opacity="0.58"/>
      <stop offset="38%" stop-color="#31d642" stop-opacity="0.28"/>
      <stop offset="100%" stop-color="#020704" stop-opacity="0"/>
    </linearGradient>
    <linearGradient id="beam" x1="0" x2="1" y1="0" y2="0">
      <stop offset="0%" stop-color="#9eff36" stop-opacity="0.58"/>
      <stop offset="48%" stop-color="#52ff38" stop-opacity="0.24"/>
      <stop offset="100%" stop-color="#071006" stop-opacity="0"/>
    </linearGradient>
    <linearGradient id="coin" x1="0" x2="1" y1="0" y2="1">
      <stop offset="0%" stop-color="#fff48b"/>
      <stop offset="48%" stop-color="#ffd02e"/>
      <stop offset="100%" stop-color="#b26906"/>
    </linearGradient>
    <filter id="softGlow" x="-80%" y="-80%" width="260%" height="260%">
      <feGaussianBlur stdDeviation="9" result="blur"/>
      <feColorMatrix in="blur" type="matrix" values="0 0 0 0 0.45 0 0 0 0 1 0 0 0 0 0.15 0 0 0 0.85 0"/>
      <feMerge>
        <feMergeNode/>
        <feMergeNode in="SourceGraphic"/>
      </feMerge>
    </filter>
    <filter id="goldGlow" x="-70%" y="-70%" width="240%" height="240%">
      <feGaussianBlur stdDeviation="6" result="blur"/>
      <feColorMatrix in="blur" type="matrix" values="0 0 0 0 1 0 0 0 0 0.82 0 0 0 0 0.12 0 0 0 0.7 0"/>
      <feMerge>
        <feMergeNode/>
        <feMergeNode in="SourceGraphic"/>
      </feMerge>
    </filter>
  </defs>

  <rect width="1440" height="650" fill="url(#backdrop)"/>
  <rect width="1440" height="650" fill="url(#leftWash)"/>
  <rect width="1440" height="650" fill="url(#tableGlow)"/>

  <g opacity="0.76">
    <path d="M0 62h910l-150 95H0z" fill="url(#beam)"/>
    <path d="M0 186h1060l-178 120H0z" fill="url(#beam)" opacity="0.78"/>
    <path d="M0 366h840l-128 96H0z" fill="url(#beam)" opacity="0.52"/>
    <path d="M0 510h642l-86 58H0z" fill="url(#beam)" opacity="0.42"/>
  </g>

  <g opacity="0.2" stroke="#bbff55" stroke-width="2">
    <path d="M0 460c192-42 370-58 534-48 230 14 398 62 606 57 118-3 220-27 300-66"/>
    <path d="M0 514c250-38 468-41 654-9 178 30 314 62 492 42 120-13 218-47 294-96"/>
    <path d="M0 600c180-26 382-34 606-24 270 12 552 44 834-55"/>
  </g>

  <g transform="translate(930 134)" filter="url(#softGlow)" opacity="0.9">
    <rect x="0" y="32" width="236" height="276" rx="24" fill="#10220d" stroke="#aaff2b" stroke-width="7"/>
    <rect x="24" y="58" width="188" height="46" rx="12" fill="#071006" stroke="#d7ff3f" stroke-width="4"/>
    <rect x="28" y="122" width="180" height="104" rx="15" fill="#e8ffee" stroke="#153d16" stroke-width="5"/>
    <rect x="38" y="132" width="44" height="84" rx="8" fill="#ffffff"/>
    <rect x="96" y="132" width="44" height="84" rx="8" fill="#ffffff"/>
    <rect x="154" y="132" width="44" height="84" rx="8" fill="#ffffff"/>
    <circle cx="60" cy="174" r="18" fill="#fa4616"/>
    <path d="M108 164h24l-13 28z" fill="#0b6fff"/>
    <text x="162" y="190" fill="#fa4616" font-family="Arial, Helvetica, sans-serif" font-size="42" font-weight="900">7</text>
    <rect x="48" y="242" width="140" height="30" rx="15" fill="#ffd02e"/>
    <line x1="236" y1="118" x2="274" y2="72" stroke="#d9ff18" stroke-width="9" stroke-linecap="round"/>
    <circle cx="282" cy="62" r="20" fill="#fa4616"/>
  </g>

  <g transform="translate(662 258)" filter="url(#goldGlow)">
    <ellipse cx="90" cy="188" rx="176" ry="34" fill="#061004" opacity="0.72"/>
    <g fill="url(#coin)" stroke="#7d4700" stroke-width="3">
      <ellipse cx="12" cy="176" rx="22" ry="8"/>
      <ellipse cx="54" cy="163" rx="22" ry="8"/>
      <ellipse cx="95" cy="171" rx="22" ry="8"/>
      <ellipse cx="140" cy="156" rx="22" ry="8"/>
      <ellipse cx="181" cy="174" rx="22" ry="8"/>
      <ellipse cx="224" cy="162" rx="22" ry="8"/>
      <ellipse cx="266" cy="181" rx="22" ry="8"/>
    </g>
    <path d="M112 126c-18-28-6-62 28-67 25-4 50 13 57 36 10 34-17 62-43 82-15-14-31-31-42-51z" fill="#33d24f" stroke="#aaff2b" stroke-width="5"/>
    <path d="M139 57c11 16 34 15 48 2" fill="none" stroke="#aaff2b" stroke-width="8" stroke-linecap="round"/>
    <text x="143" y="140" fill="#07280c" font-family="Arial, Helvetica, sans-serif" font-size="64" font-weight="900">$</text>
  </g>

  <g transform="translate(516 196)" opacity="0.78" filter="url(#softGlow)">
    <circle cx="0" cy="0" r="92" fill="#571827" stroke="#ffd55a" stroke-width="6"/>
    <circle cx="0" cy="0" r="62" fill="#21140f" stroke="#f8d66e" stroke-width="4"/>
    <g stroke="#ffd55a" stroke-width="4">
      <line x1="0" y1="-88" x2="0" y2="88"/>
      <line x1="-88" y1="0" x2="88" y2="0"/>
      <line x1="-62" y1="-62" x2="62" y2="62"/>
      <line x1="62" y1="-62" x2="-62" y2="62"/>
    </g>
  </g>

  <g fill="#ffd34d" opacity="0.86" filter="url(#goldGlow)">
    <rect x="72" y="94" width="7" height="35" rx="3" transform="rotate(-20 72 94)"/>
    <rect x="225" y="532" width="6" height="28" rx="3" transform="rotate(38 225 532)"/>
    <rect x="424" y="118" width="7" height="30" rx="3" transform="rotate(27 424 118)"/>
    <rect x="1112" y="472" width="6" height="30" rx="3" transform="rotate(-36 1112 472)"/>
    <rect x="1246" y="92" width="7" height="32" rx="3" transform="rotate(28 1246 92)"/>
    <circle cx="356" cy="492" r="4"/>
    <circle cx="842" cy="84" r="5"/>
    <circle cx="1310" cy="380" r="5"/>
  </g>

  <rect width="1440" height="650" fill="#020703" opacity="0.1"/>
  <rect x="940" width="500" height="650" fill="#000201" opacity="0.44"/>
</svg>
