<svg xmlns="http://www.w3.org/2000/svg" viewBox="0 0 420 320" role="img" aria-labelledby="title desc">
  <title id="title">Game Links Galore logo</title>
  <desc id="desc">A bold arcade-style badge with a gator-inspired mascot and the Game Links Galore name.</desc>
  <defs>
    <linearGradient id="badge" x1="0" x2="1" y1="0" y2="1">
      <stop offset="0" stop-color="#003e8a"/>
      <stop offset="1" stop-color="#001b3f"/>
    </linearGradient>
    <linearGradient id="mascot" x1="0" x2="1" y1="0" y2="1">
      <stop offset="0" stop-color="#2bd86f"/>
      <stop offset="1" stop-color="#0f8a3a"/>
    </linearGradient>
  </defs>
  <rect width="420" height="320" rx="44" fill="url(#badge)"/>
  <path d="M28 250c72-38 122-38 178 0 52 34 120 34 186-2v42H28z" fill="#fa4616" opacity=".95"/>
  <path d="M95 127c16-54 75-83 134-66 37 11 65 37 78 70 8 3 20 9 33 20 8 7 5 20-6 22l-35 6c-15 28-45 49-83 55-58 10-113-20-126-73-3-12-2-23 5-34z" fill="#fff" opacity=".96"/>
  <path d="M112 130c13-42 61-65 110-51 34 10 57 33 66 62 15 3 29 11 39 20l-43 7c-10 28-38 50-73 56-50 8-94-17-105-59-3-12-1-24 6-35z" fill="url(#mascot)"/>
  <path d="M125 156c27 16 68 18 119 8-31 28-71 36-103 21-13-6-19-16-16-29z" fill="#f6d66d"/>
  <path d="M146 132c7-10 19-13 31-6M216 125c12-9 25-7 34 3" fill="none" stroke="#001b3f" stroke-linecap="round" stroke-width="9"/>
  <circle cx="169" cy="139" r="7" fill="#001b3f"/>
  <circle cx="236" cy="137" r="7" fill="#001b3f"/>
  <path d="M136 158c38 10 80 9 125-2" fill="none" stroke="#001b3f" stroke-linecap="round" stroke-width="8"/>
  <path d="M146 166l13 16 10-19M202 169l12 17 12-20M249 159l13 15 8-18" fill="#fff" stroke="#001b3f" stroke-linejoin="round" stroke-width="4"/>
  <text x="210" y="274" fill="#fff" font-family="Arial, Helvetica, sans-serif" font-size="42" font-weight="900" letter-spacing="0" text-anchor="middle">GAME LINKS</text>
  <text x="210" y="306" fill="#ffd24a" font-family="Arial, Helvetica, sans-serif" font-size="30" font-weight="900" letter-spacing="0" text-anchor="middle">GALORE</text>
</svg>
